<?xml version="1.0" standalone="no"?><!DOCTYPE svg PUBLIC "-//W3C//DTD SVG 1.1//EN" "http://www.w3.org/Graphics/SVG/1.1/DTD/svg11.dtd"><svg class="icon" height="512" viewBox="0 0 1024 1024" version="1.1" xmlns="http://www.w3.org/2000/svg"><path d="M502.828107 224.421282c-278.256398 0-428.822602 286.99748-428.822602 286.99748s195.446367 287.466154 440.790168 287.466154 434.546977-289.966091 434.546977-289.966091S781.084505 224.421282 502.828107 224.421282zM511.674589 721.529107c-115.910916 0-209.876008-93.964068-209.876008-209.876008s93.964068-209.876008 209.876008-209.876008 209.876008 93.964068 209.876008 209.876008S627.585505 721.529107 511.674589 721.529107zM511.674589 378.623293c-71.278393 0-129.45949 56.059783-132.868123 126.492926-0.130983 2.416026-0.201591 4.848425-0.201591 7.297197 0 73.470315 59.559491 133.029806 133.029806 133.029806 71.278393 0 129.45949-56.059783 132.868123-126.492926 0.130983-2.416026 0.201591-4.848425 0.201591-7.297197C644.704394 438.182784 585.144904 378.623293 511.674589 378.623293z" /></svg>