<svg id="Capa_1" fill="#000" data-name="Capa 1" xmlns="http://www.w3.org/2000/svg" viewBox="0 0 47.99 32.72"><defs><style>.cls-1{fill:#f9f9f9;}</style></defs><title>JD__Meca_SeePassword</title><path class="cls-1" d="M47.51,15.38a35.75,35.75,0,0,0-8.86-7.14,31,31,0,0,0-7-2.86,27.69,27.69,0,0,0-5.18-.91A22.68,22.68,0,0,0,24,4.36a31.7,31.7,0,0,0-6.36.71A30.87,30.87,0,0,0,10.77,7.5a31.53,31.53,0,0,0-7.42,5.06c-1,1-2,2-3,3a1,1,0,0,0,0,1.54,37.26,37.26,0,0,0,3.76,3.78,1.5,1.5,0,0,0,.25.19,1.08,1.08,0,0,0,1.43-.22,1.06,1.06,0,0,0,0-1.44c-.16-.17-.34-.32-.5-.48-.77-.76-1.53-1.53-2.29-2.3a2.25,2.25,0,0,1-.27-.36,32.15,32.15,0,0,1,8.9-6.71A22.27,22.27,0,0,1,16.4,7.75a11.48,11.48,0,0,0-3.81,8.62A11.36,11.36,0,0,0,16.46,25a1.69,1.69,0,0,1-.89-.17,28.5,28.5,0,0,1-5.78-2.58,3.47,3.47,0,0,0-.85-.4,1,1,0,0,0-1.29.95A1.23,1.23,0,0,0,8.41,24a30,30,0,0,0,9.82,3.79,28.87,28.87,0,0,0,3.7.51,32.46,32.46,0,0,0,5.83-.2,29.1,29.1,0,0,0,6.39-1.56,31.76,31.76,0,0,0,9-5.1,37.25,37.25,0,0,0,4.52-4.27,1.2,1.2,0,0,0,0-1.56ZM24,25.61a9.11,9.11,0,0,1-9.26-9.26A9.24,9.24,0,1,1,24,25.61Zm14-3.31C35.85,23.56,32.53,25,31.55,25a11.2,11.2,0,0,0,3.92-8.59,11.47,11.47,0,0,0-3.82-8.64,30,30,0,0,1,13.68,8.55C44.79,17.33,40.88,20.7,38.06,22.3Z"/><path class="cls-1" d="M24,12a4.36,4.36,0,1,0,4.37,4.41A4.3,4.3,0,0,0,24,12Zm0,6.53a2.16,2.16,0,1,1,0-4.32,2.16,2.16,0,1,1,0,4.32Z"/></svg>