<svg id="Capa_1" data-name="Capa 1" xmlns="http://www.w3.org/2000/svg" viewBox="0 0 49.13 32.47"><defs><style>.cls-1{fill:#f9f9f9;}</style></defs><title>JD__Meca_SeePassword</title><path class="cls-1" d="M48.29,15.5a2.41,2.41,0,0,0-.21-.24A36.9,36.9,0,0,0,42.17,10l-2.05,1.29a33.06,33.06,0,0,1,5.78,4.91c-.54,1-4.44,4.39-7.27,6-2.21,1.25-5.53,2.67-6.51,2.69a11.27,11.27,0,0,0,3.93-8.6A12.08,12.08,0,0,0,35.83,14l-2.07,1.3a8.72,8.72,0,0,1,.06,1A9.31,9.31,0,0,1,19.7,24.15l-4.23,2.68a26.19,26.19,0,0,0,3.33.85,29.12,29.12,0,0,0,3.7.51,33.41,33.41,0,0,0,5.83-.2,29.12,29.12,0,0,0,6.39-1.57,32,32,0,0,0,9-5.09,36.49,36.49,0,0,0,4.51-4.28A1.18,1.18,0,0,0,48.29,15.5Z"/><path class="cls-1" d="M4.91,21a1.08,1.08,0,0,0,1.43-.22,1.06,1.06,0,0,0,0-1.44c-.16-.17-.34-.32-.5-.49C5,18.07,4.26,17.31,3.5,16.54a2.56,2.56,0,0,1-.26-.36,31.67,31.67,0,0,1,8.9-6.71A22.74,22.74,0,0,1,17,7.62a11.59,11.59,0,0,0-3.81,8.63A12.17,12.17,0,0,0,13.48,19l2-1.25a8.39,8.39,0,0,1-.11-1.51A9.19,9.19,0,0,1,24.58,7a9.06,9.06,0,0,1,5.29,1.65l4.37-2.76c-.67-.24-1.35-.45-2-.64A28.38,28.38,0,0,0,27,4.34c-.82-.06-1.65-.12-2.47-.1a32.43,32.43,0,0,0-6.36.7,31.79,31.79,0,0,0-14.27,7.5c-1,1-2,2-3,3A1,1,0,0,0,.9,17a36.27,36.27,0,0,0,3.76,3.78A2.43,2.43,0,0,0,4.91,21Z"/><path class="cls-1" d="M46.16,3a1.37,1.37,0,0,0-.86-.65,1.31,1.31,0,0,0-1,.17L3.43,28.22A1.42,1.42,0,0,0,3,30.14a1.36,1.36,0,0,0,1.89.48L45.7,4.87A1.43,1.43,0,0,0,46.16,3Z"/></svg>