<?xml version="1.0" standalone="no"?><!DOCTYPE svg PUBLIC "-//W3C//DTD SVG 1.1//EN" "http://www.w3.org/Graphics/SVG/1.1/DTD/svg11.dtd"><svg class="icon" height="512" viewBox="0 0 1024 1024" version="1.1" xmlns="http://www.w3.org/2000/svg"><path d="M752.8 316.6 896 173.2 850.8 128l-155.2 155.2C640 255.4 579 238 512 238c-163.8 0-291.4 104.4-448 274 69.6 74.8 133.6 145.4 206.6 196.2L128 850.8 173.2 896l153.8-153.8c54 27.4 114 43.8 185 43.8 199.8 0 346.8-163.6 448-271C904 446.8 835.2 371.4 752.8 316.6zM332.8 512c0-100.8 80.4-182.6 179.2-182.6 38.6 0 74.4 12.4 103.6 33.8l-101.4 101.4c-1.4-5.2-2.2-10.8-2.2-16.6 0-15.8 5.8-30.2 15.2-41.4-5-0.8-10-1.2-15.2-1.2-57.6 0-104.6 47.8-104.6 106.6 0 17.2 4 33.6 11.2 48L364 614.8C344.4 585.4 332.8 550 332.8 512zM512 694.6c-38.6 0-74.4-12.4-103.6-33.8l54.8-54.8c14.6 8 31.2 12.4 48.8 12.4 57.6 0 104.6-47.8 104.6-106.6 0-4.6-0.4-9.2-0.8-13.8-11 8.6-24.6 13.8-39.6 13.8-5.8 0-11.2-0.8-16.6-2.2l100.6-100.6c19.6 29.2 31.2 64.6 31.2 102.8C691.2 612.8 610.8 694.6 512 694.6z" /></svg>