<svg id="Capa_1" data-name="Capa 1" xmlns="http://www.w3.org/2000/svg" viewBox="0 0 150.8 150.79"><defs><style>.cls-1{fill:#95eab8;}</style></defs><title>icono editar-usuario</title><path class="cls-1" d="M119.38,75.39a6.29,6.29,0,0,0-6.28,6.29v50.26a6.29,6.29,0,0,1-6.28,6.29h-88a6.29,6.29,0,0,1-6.28-6.29V44a6.29,6.29,0,0,1,6.28-6.29H69.12a6.28,6.28,0,1,0,0-12.56H18.85A18.88,18.88,0,0,0,0,44v88a18.87,18.87,0,0,0,18.85,18.85h88a18.87,18.87,0,0,0,18.85-18.85V81.68A6.28,6.28,0,0,0,119.38,75.39Z"/><path class="cls-1" d="M58.91,69.67a3.22,3.22,0,0,0-.86,1.6L53.61,93.49a3.14,3.14,0,0,0,3.08,3.76,2.68,2.68,0,0,0,.62-.07l22.21-4.44a3.06,3.06,0,0,0,1.61-.86l49.71-49.71L108.63,20Z"/><path class="cls-1" d="M146.2,4.59a15.73,15.73,0,0,0-22.21,0l-8.7,8.7L137.5,35.5l8.7-8.69a15.72,15.72,0,0,0,0-22.22Z"/></svg>
