<?xml version="1.0" encoding="utf-8"?>
<!-- Generator: Adobe Illustrator 22.0.1, SVG Export Plug-In . SVG Version: 6.00 Build 0)  -->
<svg version="1.1" id="Capa_1" xmlns="http://www.w3.org/2000/svg" xmlns:xlink="http://www.w3.org/1999/xlink" x="0px" y="0px"
	 viewBox="0 0 309.4 335.9" style="enable-background:new 0 0 309.4 335.9;" xml:space="preserve">
<symbol fill="#FFF" id="Icono" viewBox="-22.2 -24.1 44.4 48.2">
	<g>
		<g>
			<g>
				<g>
					<g>
						<g>
							<g>
								<g>
									<g>
										<path class="st0" d="M4.3,2.6h-6.5c-1.6,0-2.7,1.1-2.7,2.7C-4.9,6.9-3.7,8-2.2,8h5.9c1.5,0,2.8-1.2,2.8-2.7V5h4.6v0.4
											c0,1.1-0.3,2.2-0.7,3.2c-1.2,2.5-3.8,4.1-6.7,4.1h-5.9c-2.8,0-5.4-1.6-6.7-4.1c-0.5-1-0.7-2.1-0.7-3.2
											c0-1.9,0.8-3.9,2.1-5.3C-6-1.3-4.1-2-2.2-2h6.4c1.7,0,3.1-1.4,3.1-3.1S5.9-8.3,4.2-8.3h-6.9c-1.7,0-3.1,1.4-3.1,3.1v0.4
											h-4.6v-0.4c0-1.3,0.3-2.6,0.9-3.6c1.3-2.5,4-4.1,6.9-4.1h6.9c2.8,0,5.4,1.6,6.7,4.1c0.6,1.1,0.9,2.3,0.9,3.7
											c0,2.2-0.9,4.2-2.5,5.7C7.9,1.9,6.1,2.6,4.3,2.6z"/>
									</g>
								</g>
							</g>
						</g>
					</g>
				</g>
				<polygon class="st1" points="-22.2,6.9 -17.9,6.9 -17.9,19.8 -5,19.8 -5,24.1 -22.2,24.1 				"/>
				<polygon class="st1" points="22.2,-6.9 17.9,-6.9 17.9,-19.8 5,-19.8 5,-24.1 22.2,-24.1 				"/>
			</g>
		</g>
	</g>
</symbol>
<use xlink:href="#Icono"  width="44.4" height="48.2" x="-22.2" y="-24.1" transform="matrix(6.9724 0 0 -6.9724 154.6862 167.9558)" style="overflow:visible;"/>
</svg>
