<?xml version="1.0" encoding="utf-8"?>
<!-- Generator: Adobe Illustrator 22.0.1, SVG Export Plug-In . SVG Version: 6.00 Build 0)  -->
<svg version="1.1" id="Capa_1" xmlns="http://www.w3.org/2000/svg" xmlns:xlink="http://www.w3.org/1999/xlink" x="0px" y="0px"
	 viewBox="0 0 500 135.6" style="enable-background:new 0 0 500 135.6;" xml:space="preserve">
<style type="text/css">
	.st0{fill:#00444F;}
	.st1{fill:#44AC8A;}
</style>
<symbol  id="Logo_pprincipal" viewBox="-74.7 -20.3 149.4 40.5">
	<g>
		<g>
			<g>
				<g>
					<g>
						<g>
							<g>
								<g>
									<g fill="#00444F">
										<polygon class="st0" points="-42.9,10.1 -42.9,5.9 -40.3,5.9 -40.3,-11.2 -36.1,-11.2 -36.2,10.1 										"/>
										<path class="st0" d="M-17.3,8.9c-1.6,1.2-3.5,1.8-5.5,1.8c-2.2,0-4.3-0.8-6-2.2c-2.1-1.8-3.4-4.4-3.4-7.2v-3.5
											c0-2.8,1.2-5.5,3.4-7.2c1.7-1.4,3.8-2.2,6-2.2c2.4,0,4.2,0.9,5.2,1.6v-1.2c0-1.3-1.1-2.4-2.4-2.4h-6.2v-4.1h6.2
											c2.4,0,4.6,1.3,5.7,3.4c0.5,1,0.8,2,0.8,3.1v21.5h-3.3L-17.3,8.9z M-17.7-2.4c0-2.9-2.3-5.2-5.2-5.2
											c-2.9,0-5.2,2.3-5.2,5.2v3.7c0,2.9,2.3,5.2,5.2,5.2c2.9,0,5.2-2.3,5.2-5.2V-2.4z"/>
										<path class="st0" d="M5.9,8.2c-1.6,1.4-3.8,2.1-6,2.1c-2,0-3.9-0.6-5.4-1.8L-6,10.1h-3.3v-21.3h4.1V1
											c0,2.9,2.3,5.2,5.2,5.2c2.9,0,5.2-2.3,5.2-5.2v-12.2h4.1V1C9.3,3.9,8.1,6.4,5.9,8.2z"/>
										<path class="st0" d="M23.4-9.5c-0.4,0.6-0.9,1.3-1.3,2.1L21.9-7l-0.4-0.2c-0.3-0.1-0.4-0.1-0.7-0.1l-0.2,0
											c-1.8,0-3.2,1.4-3.2,3.2v21l-8.1-0.1v-4.2l4,0.1V-4.2c0-1.4,0.4-2.7,1.1-3.9c1.4-2.2,3.7-3.5,6.3-3.5c1.1,0,2.1,0.2,3,0.6
											l0.5,0.2l-0.3,0.4C23.7-10,23.6-9.8,23.4-9.5z"/>
										<path class="st0" d="M38.6,8.8c-1.5,1-3.3,1.6-5.2,1.6c-2.2,0-4.3-0.8-6-2.2c-2.1-1.8-3.4-4.4-3.4-7.2v-3.2
											c0-2.8,1.2-5.4,3.4-7.2c1.7-1.4,3.8-2.2,6-2.2c2,0,3.8,0.6,5.4,1.8l0.7-1.5h3.2v21.3h-4.2V8.8z M38.6-2.1
											c0-2.9-2.3-5.2-5.2-5.2c-2.9,0-5.2,2.3-5.2,5.2V1c0,2.9,2.3,5.2,5.2,5.2c2.9,0,5.2-2.3,5.2-5.2V-2.1z"/>
										<path class="st0" d="M62.1,7.9c-1.6,1.4-3.7,2.2-6,2.2c-1.9,0-3.7-0.6-5.2-1.6v8.3h-4.1v-28h3.1l0.7,1.5
											c1.6-1.2,3.5-1.8,5.5-1.8c2.2,0,4.3,0.7,6,2.2c2.1,1.8,3.4,4.4,3.4,7.2v2.9C65.4,3.5,64.2,6.1,62.1,7.9z M61.3-2.1
											c0-2.9-2.3-5.2-5.2-5.2c-2.9,0-5.2,2.3-5.2,5.2v2.9c0,2.9,2.3,5.2,5.2,5.2c2.9,0,5.2-2.3,5.2-5.2V-2.1z"/>
										<path class="st0" d="M-52,1.8h-5.6c-1.4,0-2.3,0.9-2.3,2.3c0,1.3,1,2.3,2.3,2.3h5.1c1.3,0,2.4-1,2.4-2.3V3.8h4v0.3
											c0,0.9-0.2,1.9-0.6,2.8c-1.1,2.2-3.3,3.5-5.7,3.5h-5.1c-2.4,0-4.7-1.4-5.7-3.5c-0.4-0.8-0.6-1.8-0.6-2.8
											c0-1.7,0.7-3.3,1.8-4.5c1.2-1.2,2.8-1.8,4.5-1.8h5.5c1.5,0,2.6-1.2,2.6-2.7s-1.2-2.7-2.6-2.7H-58c-1.5,0-2.7,1.2-2.7,2.7
											v0.3h-4v-0.3c0-1.1,0.3-2.2,0.8-3.1c1.2-2.2,3.4-3.5,5.9-3.5h5.9c2.4,0,4.6,1.4,5.8,3.5c0.5,0.9,0.8,2,0.8,3.1
											c0,1.9-0.8,3.6-2.1,4.9C-48.8,1.2-50.4,1.8-52,1.8z"/>
										<path class="st0" d="M-39.2,12.6c1.5,0,2.8,1.2,2.8,2.8s-1.2,2.8-2.8,2.8s-2.8-1.2-2.8-2.8S-40.7,12.6-39.2,12.6z"/>
									</g>
								</g>
							</g>
						</g>
					</g>
				</g>
				<polygon fill="#44AC8A" class="st1" points="-74.7,5.5 -71,5.5 -71,16.6 -59.9,16.6 -59.9,20.3 -74.7,20.3 				"/>
				<polygon fill="#44AC8A" class="st1" points="74.7,-5.5 71,-5.5 71,-16.6 59.9,-16.6 59.9,-20.3 74.7,-20.3 				"/>
			</g>
		</g>
	</g>
</symbol>
<use xlink:href="#Logo_pprincipal"  width="149.4" height="40.5" id="XMLID_28_" x="-74.7" y="-20.3" transform="matrix(3.3462 0 0 -3.3462 250 67.8056)" style="overflow:visible;"/>
</svg>
