<svg id="Capa_1" data-name="Capa 1" xmlns="http://www.w3.org/2000/svg" viewBox="0 0 103.62 96.82"><defs><style>.cls-1{opacity:0.57;}.cls-2{fill:#606060;}</style></defs><title>JD__Meca_usere</title><g class="cls-1"><path class="cls-2" d="M77.05,96.66c0-.84,0-1.45,0-2.07-.07-3.56.1-7.15-.27-10.68-1-9.67-6-16.62-14.94-20.57a24.73,24.73,0,0,0-7.39-1.73,24.65,24.65,0,0,0-14.51,3A25.22,25.22,0,0,0,26.57,86.92c0,2.72,0,5.43,0,8.15v1.75C7.37,86.6-4.25,63.18,1.46,39.65a51.8,51.8,0,0,1,101.07,1.59C107.55,65.5,94.61,87.38,77.05,96.66ZM40.8,59.5,40,59A22.69,22.69,0,0,1,29,41.46a22.6,22.6,0,0,1,7.77-20.07,22.29,22.29,0,0,1,18.39-5.58A22.23,22.23,0,0,1,69,23a22.69,22.69,0,0,1,6,19.4,22.28,22.28,0,0,1-9,15c-.85.64-1.72,1.24-2.69,1.94a27.6,27.6,0,0,1,13.35,11A30.48,30.48,0,0,1,81.25,87a46.1,46.1,0,1,0-74.66-45c-3.93,18.23,3.87,36,15.71,45C22.77,74.17,29,65.12,40.8,59.5ZM71,41c.15-7.78-2.69-13.84-7.7-17.49A18.82,18.82,0,0,0,38,26.11a19.35,19.35,0,0,0-2.33,22.68C39.22,55,45,57.57,51.78,58.25a3,3,0,0,0,.84-.06c3.33-.64,6.63-1.34,9.53-3.29C67.81,51.1,70.75,45.81,71,41Z"/></g></svg>